<svg width="25" height="25" viewBox="0 0 25 25" fill="none" xmlns="http://www.w3.org/2000/svg">
<g clip-path="url(#clip0_1151_93)">
<path d="M0.524623 12.0244C-0.172921 12.722 -0.172921 13.8548 0.524623 14.5524L9.45319 23.4809C10.1507 24.1785 11.2836 24.1785 11.9811 23.4809C12.6786 22.7834 12.6786 21.6506 11.9811 20.953L6.09382 15.0713H23.2144C24.2021 15.0713 25.0001 14.2733 25.0001 13.2856C25.0001 12.2979 24.2021 11.4999 23.2144 11.4999H6.0994L11.9755 5.6182C12.6731 4.92065 12.6731 3.78784 11.9755 3.0903C11.278 2.39275 10.1452 2.39275 9.44761 3.0903L0.519043 12.0189L0.524623 12.0244Z" fill="white"/>
</g>
<defs>
<clipPath id="clip0_1151_93">
<rect width="25" height="28.5714" fill="white" transform="translate(0 -1)"/>
</clipPath>
</defs>
</svg>
