<svg width="30" height="30" viewBox="0 0 30 30" fill="none" xmlns="http://www.w3.org/2000/svg">
<g clip-path="url(#clip0_1105_324)">
<path d="M2.12988 27.0165C2.12988 28.5693 3.38965 29.829 4.94238 29.829H25.5674C27.1201 29.829 28.3799 28.5693 28.3799 27.0165V11.079H2.12988V27.0165ZM20.8799 15.5322C20.8799 15.1454 21.1963 14.829 21.583 14.829H23.9268C24.3135 14.829 24.6299 15.1454 24.6299 15.5322V17.8759C24.6299 18.2626 24.3135 18.579 23.9268 18.579H21.583C21.1963 18.579 20.8799 18.2626 20.8799 17.8759V15.5322ZM20.8799 23.0322C20.8799 22.6454 21.1963 22.329 21.583 22.329H23.9268C24.3135 22.329 24.6299 22.6454 24.6299 23.0322V25.3759C24.6299 25.7626 24.3135 26.079 23.9268 26.079H21.583C21.1963 26.079 20.8799 25.7626 20.8799 25.3759V23.0322ZM13.3799 15.5322C13.3799 15.1454 13.6963 14.829 14.083 14.829H16.4268C16.8135 14.829 17.1299 15.1454 17.1299 15.5322V17.8759C17.1299 18.2626 16.8135 18.579 16.4268 18.579H14.083C13.6963 18.579 13.3799 18.2626 13.3799 17.8759V15.5322ZM13.3799 23.0322C13.3799 22.6454 13.6963 22.329 14.083 22.329H16.4268C16.8135 22.329 17.1299 22.6454 17.1299 23.0322V25.3759C17.1299 25.7626 16.8135 26.079 16.4268 26.079H14.083C13.6963 26.079 13.3799 25.7626 13.3799 25.3759V23.0322ZM5.87988 15.5322C5.87988 15.1454 6.19629 14.829 6.58301 14.829H8.92676C9.31348 14.829 9.62988 15.1454 9.62988 15.5322V17.8759C9.62988 18.2626 9.31348 18.579 8.92676 18.579H6.58301C6.19629 18.579 5.87988 18.2626 5.87988 17.8759V15.5322ZM5.87988 23.0322C5.87988 22.6454 6.19629 22.329 6.58301 22.329H8.92676C9.31348 22.329 9.62988 22.6454 9.62988 23.0322V25.3759C9.62988 25.7626 9.31348 26.079 8.92676 26.079H6.58301C6.19629 26.079 5.87988 25.7626 5.87988 25.3759V23.0322ZM25.5674 3.57904H22.7549V0.766541C22.7549 0.250916 22.333 -0.170959 21.8174 -0.170959H19.9424C19.4268 -0.170959 19.0049 0.250916 19.0049 0.766541V3.57904H11.5049V0.766541C11.5049 0.250916 11.083 -0.170959 10.5674 -0.170959H8.69238C8.17676 -0.170959 7.75488 0.250916 7.75488 0.766541V3.57904H4.94238C3.38965 3.57904 2.12988 4.83881 2.12988 6.39154V9.20404H28.3799V6.39154C28.3799 4.83881 27.1201 3.57904 25.5674 3.57904Z" fill="white"/>
</g>
<defs>
<clipPath id="clip0_1105_324">
<rect width="30" height="30" fill="white" transform="translate(0.254883 -0.170959)"/>
</clipPath>
</defs>
</svg>
