<svg width="30" height="30" viewBox="0 0 30 30" fill="none" xmlns="http://www.w3.org/2000/svg">
<g clip-path="url(#clip0_901_729)">
<path d="M0 3.33333C0 1.49479 1.49479 0 3.33333 0H11.6667V6.66667C11.6667 7.58854 12.4115 8.33333 13.3333 8.33333H20V14.8802L15.4792 19.401C14.9427 19.9375 14.5677 20.6042 14.3854 21.3385L13.4115 25.2396C13.2917 25.7188 13.3177 26.2187 13.4792 26.6719H3.33333C1.49479 26.6719 0 25.1771 0 23.3385V3.33333ZM20 6.66667H13.3333V0L20 6.66667ZM28.6354 12.276L29.3854 13.026C30.1979 13.8385 30.1979 15.1562 29.3854 15.974L27.8542 17.5052L24.1562 13.8073L25.6875 12.276C26.5 11.4635 27.8177 11.4635 28.6354 12.276ZM16.2448 21.7188L22.974 14.9896L26.6719 18.6875L19.9427 25.4115C19.7292 25.625 19.4635 25.776 19.1667 25.849L16.0365 26.6302C15.75 26.7031 15.4531 26.6198 15.2448 26.4115C15.0365 26.2031 14.9531 25.9062 15.026 25.6198L15.8073 22.4896C15.8802 22.1979 16.0312 21.9271 16.2448 21.7135V21.7188Z" fill="white"/>
</g>
<defs>
<clipPath id="clip0_901_729">
<rect width="30" height="26.6667" fill="white"/>
</clipPath>
</defs>
</svg>
