<svg width="25" height="25" viewBox="0 0 25 25" fill="none" xmlns="http://www.w3.org/2000/svg">
<g clip-path="url(#clip0_901_794)">
<g clip-path="url(#clip1_901_794)">
<path d="M15.1842 9.60939V13.577C15.1842 13.6775 15.106 13.7556 15.0056 13.7556H14.3694C14.308 13.7556 14.2522 13.7221 14.2243 13.683L12.4051 11.2277V13.5826C12.4051 13.683 12.327 13.7612 12.2266 13.7612H11.5904C11.49 13.7612 11.4118 13.683 11.4118 13.5826V9.61497C11.4118 9.51452 11.49 9.4364 11.5904 9.4364H12.221C12.2768 9.4364 12.3382 9.4643 12.3661 9.51452L14.1853 11.9699V9.61497C14.1853 9.51452 14.2634 9.4364 14.3639 9.4364H15C15.1005 9.43082 15.1842 9.51452 15.1842 9.60939ZM10.6083 9.43082H9.97211C9.87166 9.43082 9.79354 9.50894 9.79354 9.60939V13.577C9.79354 13.6775 9.87166 13.7556 9.97211 13.7556H10.6083C10.7087 13.7556 10.7868 13.6775 10.7868 13.577V9.60939C10.7868 9.51452 10.7087 9.43082 10.6083 9.43082ZM9.07367 12.7567H7.33818V9.60939C7.33818 9.50894 7.26006 9.43082 7.15961 9.43082H6.52345C6.423 9.43082 6.34488 9.50894 6.34488 9.60939V13.577C6.34488 13.6272 6.36162 13.6663 6.3951 13.6998C6.42858 13.7277 6.46765 13.75 6.51787 13.75H9.06809C9.16854 13.75 9.24666 13.6719 9.24666 13.5714V12.9353C9.24666 12.8404 9.16854 12.7567 9.07367 12.7567ZM18.5324 9.43082H15.9822C15.8873 9.43082 15.8036 9.50894 15.8036 9.60939V13.577C15.8036 13.6719 15.8817 13.7556 15.9822 13.7556H18.5324C18.6328 13.7556 18.7109 13.6775 18.7109 13.577V12.9409C18.7109 12.8404 18.6328 12.7623 18.5324 12.7623H16.7969V12.0926H18.5324C18.6328 12.0926 18.7109 12.0145 18.7109 11.9141V11.2723C18.7109 11.1719 18.6328 11.0938 18.5324 11.0938H16.7969V10.4241H18.5324C18.6328 10.4241 18.7109 10.346 18.7109 10.2455V9.60939C18.7054 9.51452 18.6272 9.43082 18.5324 9.43082ZM25 4.55916V20.4799C24.9944 22.9799 22.9464 25.0056 20.4409 25H4.5201C2.0201 24.9944 -0.00556885 22.9409 1.1502e-05 20.4409V4.5201C0.00559186 2.0201 2.05916 -0.00556885 4.55916 1.1502e-05H20.4799C22.9799 0.00559186 25.0056 2.05358 25 4.55916ZM21.5625 11.4007C21.5625 7.32702 17.4777 4.01229 12.4609 4.01229C7.44421 4.01229 3.35939 7.32702 3.35939 11.4007C3.35939 15.0502 6.59599 18.1083 10.971 18.6886C12.0368 18.9174 11.9141 19.308 11.6741 20.7422C11.6351 20.971 11.49 21.6406 12.4609 21.2333C13.4319 20.8259 17.7009 18.1473 19.615 15.9487C20.9319 14.4978 21.5625 13.0301 21.5625 11.4007Z" fill="black"/>
</g>
</g>
<defs>
<clipPath id="clip0_901_794">
<rect width="25" height="25" fill="white"/>
</clipPath>
<clipPath id="clip1_901_794">
<rect width="25" height="28.5714" fill="white" transform="translate(0 -2)"/>
</clipPath>
</defs>
</svg>
