<svg width="40" height="40" viewBox="0 0 40 40" fill="none" xmlns="http://www.w3.org/2000/svg">
<path d="M4.5 10.3C4.5 9.37179 4.86875 8.48155 5.52513 7.82518C6.1815 7.1688 7.07174 6.80005 8 6.80005C8.92826 6.80005 9.8185 7.1688 10.4749 7.82518C11.1313 8.48155 11.5 9.37179 11.5 10.3C11.5 11.2283 11.1313 12.1185 10.4749 12.7749C9.8185 13.4313 8.92826 13.8 8 13.8C7.07174 13.8 6.1815 13.4313 5.52513 12.7749C4.86875 12.1185 4.5 11.2283 4.5 10.3ZM4 20.1563C3.375 20.8563 3 21.7875 3 22.8C3 23.8125 3.375 24.7438 4 25.4438V20.1563ZM13.025 17.075C11.1687 18.7188 10 21.125 10 23.8C10 25.9438 10.75 27.9125 12 29.4563V30.8C12 31.9063 11.1062 32.8 10 32.8H6C4.89375 32.8 4 31.9063 4 30.8V29.125C1.6375 28 0 25.5938 0 22.8C0 18.9313 3.13125 15.8 7 15.8H9C10.5 15.8 11.8875 16.2688 13.025 17.0688V17.075ZM28 30.8V29.4563C29.25 27.9125 30 25.9438 30 23.8C30 21.125 28.8313 18.7188 26.975 17.0688C28.1125 16.2688 29.5 15.8 31 15.8H33C36.8688 15.8 40 18.9313 40 22.8C40 25.5938 38.3625 28 36 29.125V30.8C36 31.9063 35.1063 32.8 34 32.8H30C28.8937 32.8 28 31.9063 28 30.8ZM28.5 10.3C28.5 9.37179 28.8687 8.48155 29.5251 7.82518C30.1815 7.1688 31.0717 6.80005 32 6.80005C32.9283 6.80005 33.8185 7.1688 34.4749 7.82518C35.1312 8.48155 35.5 9.37179 35.5 10.3C35.5 11.2283 35.1312 12.1185 34.4749 12.7749C33.8185 13.4313 32.9283 13.8 32 13.8C31.0717 13.8 30.1815 13.4313 29.5251 12.7749C28.8687 12.1185 28.5 11.2283 28.5 10.3ZM36 20.1563V25.45C36.625 24.7438 37 23.8188 37 22.8063C37 21.7938 36.625 20.8625 36 20.1625V20.1563ZM20 6.80005C21.0609 6.80005 22.0783 7.22148 22.8284 7.97162C23.5786 8.72177 24 9.73918 24 10.8C24 11.8609 23.5786 12.8783 22.8284 13.6285C22.0783 14.3786 21.0609 14.8 20 14.8C18.9391 14.8 17.9217 14.3786 17.1716 13.6285C16.4214 12.8783 16 11.8609 16 10.8C16 9.73918 16.4214 8.72177 17.1716 7.97162C17.9217 7.22148 18.9391 6.80005 20 6.80005ZM15 23.8C15 24.8125 15.375 25.7375 16 26.4438V21.1563C15.375 21.8625 15 22.7875 15 23.8ZM24 21.1563V26.45C24.625 25.7438 25 24.8188 25 23.8063C25 22.7938 24.625 21.8625 24 21.1625V21.1563ZM28 23.8C28 26.5938 26.3625 29 24 30.125V32.8C24 33.9063 23.1063 34.8 22 34.8H18C16.8937 34.8 16 33.9063 16 32.8V30.125C13.6375 29 12 26.5938 12 23.8C12 19.9313 15.1313 16.8 19 16.8H21C24.8687 16.8 28 19.9313 28 23.8Z" fill="white"/>
</svg>
