<svg width="25" height="25" viewBox="0 0 25 25" fill="none" xmlns="http://www.w3.org/2000/svg">
<g clip-path="url(#clip0_913_1008)">
<path d="M4.14286 3.92855C3.71071 3.92855 3.35714 4.28213 3.35714 4.71427V20.4286C3.35714 20.8607 3.71071 21.2143 4.14286 21.2143H19.8571C20.2893 21.2143 20.6429 20.8607 20.6429 20.4286V4.71427C20.6429 4.28213 20.2893 3.92855 19.8571 3.92855H4.14286ZM1 4.71427C1 2.98079 2.40937 1.57141 4.14286 1.57141H19.8571C21.5906 1.57141 23 2.98079 23 4.71427V20.4286C23 22.162 21.5906 23.5714 19.8571 23.5714H4.14286C2.40937 23.5714 1 22.162 1 20.4286V4.71427ZM8.46429 11.3928H15.5357C16.1888 11.3928 16.7143 11.9183 16.7143 12.5714C16.7143 13.2245 16.1888 13.75 15.5357 13.75H8.46429C7.81116 13.75 7.28571 13.2245 7.28571 12.5714C7.28571 11.9183 7.81116 11.3928 8.46429 11.3928Z" fill="#4C71F1"/>
</g>
<defs>
<clipPath id="clip0_913_1008">
<rect width="25" height="25" fill="white"/>
</clipPath>
</defs>
</svg>
