<svg width="30" height="30" viewBox="0 0 30 30" fill="none" xmlns="http://www.w3.org/2000/svg">
<path d="M0 7.39998H30C30 5.56144 28.5052 4.06665 26.6667 4.06665H3.33333C1.49479 4.06665 0 5.56144 0 7.39998ZM0 9.06665V24.0667C0 25.9052 1.49479 27.4 3.33333 27.4H26.6667C28.5052 27.4 30 25.9052 30 24.0667V9.06665H0ZM3.33333 23.5094C3.33333 21.9729 4.57812 20.7333 6.10938 20.7333H12.224C13.7604 20.7333 15 21.9781 15 23.5094C15 23.8166 14.75 24.0667 14.4427 24.0667H3.89062C3.58333 24.0667 3.33333 23.8166 3.33333 23.5094ZM9.16667 12.4C10.0507 12.4 10.8986 12.7512 11.5237 13.3763C12.1488 14.0014 12.5 14.8493 12.5 15.7333C12.5 16.6174 12.1488 17.4652 11.5237 18.0903C10.8986 18.7155 10.0507 19.0667 9.16667 19.0667C8.28261 19.0667 7.43476 18.7155 6.80964 18.0903C6.18452 17.4652 5.83333 16.6174 5.83333 15.7333C5.83333 14.8493 6.18452 14.0014 6.80964 13.3763C7.43476 12.7512 8.28261 12.4 9.16667 12.4ZM18.3333 13.2333C18.3333 12.775 18.7083 12.4 19.1667 12.4H25.8333C26.2917 12.4 26.6667 12.775 26.6667 13.2333C26.6667 13.6917 26.2917 14.0667 25.8333 14.0667H19.1667C18.7083 14.0667 18.3333 13.6917 18.3333 13.2333ZM18.3333 16.5667C18.3333 16.1083 18.7083 15.7333 19.1667 15.7333H25.8333C26.2917 15.7333 26.6667 16.1083 26.6667 16.5667C26.6667 17.025 26.2917 17.4 25.8333 17.4H19.1667C18.7083 17.4 18.3333 17.025 18.3333 16.5667ZM18.3333 19.9C18.3333 19.4417 18.7083 19.0667 19.1667 19.0667H25.8333C26.2917 19.0667 26.6667 19.4417 26.6667 19.9C26.6667 20.3583 26.2917 20.7333 25.8333 20.7333H19.1667C18.7083 20.7333 18.3333 20.3583 18.3333 19.9Z" fill="white"/>
</svg>
