<svg width="25" height="25" viewBox="0 0 25 25" fill="none" xmlns="http://www.w3.org/2000/svg">
<g clip-path="url(#clip0_913_1012)">
<path d="M4.14286 3.92855C3.71071 3.92855 3.35714 4.28213 3.35714 4.71427V20.4286C3.35714 20.8607 3.71071 21.2143 4.14286 21.2143H19.8571C20.2893 21.2143 20.6429 20.8607 20.6429 20.4286V4.71427C20.6429 4.28213 20.2893 3.92855 19.8571 3.92855H4.14286ZM1 4.71427C1 2.98079 2.40937 1.57141 4.14286 1.57141H19.8571C21.5906 1.57141 23 2.98079 23 4.71427V20.4286C23 22.162 21.5906 23.5714 19.8571 23.5714H4.14286C2.40937 23.5714 1 22.162 1 20.4286V4.71427ZM10.8214 16.8928V13.75H7.67857C7.02545 13.75 6.5 13.2245 6.5 12.5714C6.5 11.9183 7.02545 11.3928 7.67857 11.3928H10.8214V8.24998C10.8214 7.59686 11.3469 7.07141 12 7.07141C12.6531 7.07141 13.1786 7.59686 13.1786 8.24998V11.3928H16.3214C16.9746 11.3928 17.5 11.9183 17.5 12.5714C17.5 13.2245 16.9746 13.75 16.3214 13.75H13.1786V16.8928C13.1786 17.546 12.6531 18.0714 12 18.0714C11.3469 18.0714 10.8214 17.546 10.8214 16.8928Z" fill="#4C71F1"/>
</g>
<defs>
<clipPath id="clip0_913_1012">
<rect width="25" height="25" fill="white"/>
</clipPath>
</defs>
</svg>
