<svg width="40" height="40" viewBox="0 0 40 40" fill="none" xmlns="http://www.w3.org/2000/svg">
<g clip-path="url(#clip0_901_744)">
<path d="M10 2.5V5H6.25C4.17969 5 2.5 6.67969 2.5 8.75V12.5H37.5V8.75C37.5 6.67969 35.8203 5 33.75 5H30V2.5C30 1.11719 28.8828 0 27.5 0C26.1172 0 25 1.11719 25 2.5V5H15V2.5C15 1.11719 13.8828 0 12.5 0C11.1172 0 10 1.11719 10 2.5ZM37.5 15H2.5V36.25C2.5 38.3203 4.17969 40 6.25 40H33.75C35.8203 40 37.5 38.3203 37.5 36.25V15ZM20 19.375C21.0391 19.375 21.875 20.2109 21.875 21.25V25.625H26.25C27.2891 25.625 28.125 26.4609 28.125 27.5C28.125 28.5391 27.2891 29.375 26.25 29.375H21.875V33.75C21.875 34.7891 21.0391 35.625 20 35.625C18.9609 35.625 18.125 34.7891 18.125 33.75V29.375H13.75C12.7109 29.375 11.875 28.5391 11.875 27.5C11.875 26.4609 12.7109 25.625 13.75 25.625H18.125V21.25C18.125 20.2109 18.9609 19.375 20 19.375Z" fill="white"/>
</g>
<defs>
<clipPath id="clip0_901_744">
<rect width="40" height="40" fill="white"/>
</clipPath>
</defs>
</svg>
