<svg width="16" height="16" viewBox="0 0 16 16" fill="none" xmlns="http://www.w3.org/2000/svg">
<g clip-path="url(#clip0_913_1122)">
<g clip-path="url(#clip1_913_1122)">
<path d="M10.0156 6.53711C10.0156 6.02734 10.2852 5.56445 10.5986 5.16016C10.9678 4.68262 11.1875 4.08496 11.1875 3.4375C11.1875 1.88477 9.92773 0.625 8.375 0.625C6.82227 0.625 5.5625 1.88477 5.5625 3.4375C5.5625 4.08496 5.78223 4.68262 6.15137 5.16016C6.46484 5.56445 6.73438 6.02734 6.73438 6.53711C6.73438 7.41309 6.02246 8.125 5.14648 8.125H4.15625C2.34277 8.125 0.875 9.59277 0.875 11.4062C0.875 12.0186 1.26758 12.54 1.8125 12.7334V14.2188C1.8125 14.9951 2.44238 15.625 3.21875 15.625H13.5312C14.3076 15.625 14.9375 14.9951 14.9375 14.2188V12.7334C15.4824 12.54 15.875 12.0186 15.875 11.4062C15.875 9.59277 14.4072 8.125 12.5938 8.125H11.6035C10.7275 8.125 10.0156 7.41309 10.0156 6.53711ZM13.0625 12.8125V13.75H3.6875V12.8125H13.0625Z" fill="#4C71F1"/>
</g>
</g>
<defs>
<clipPath id="clip0_913_1122">
<rect width="15" height="15" fill="white" transform="translate(0.875 0.625)"/>
</clipPath>
<clipPath id="clip1_913_1122">
<rect width="15" height="15" fill="white" transform="translate(0.875 0.625)"/>
</clipPath>
</defs>
</svg>
