<svg width="16" height="16" viewBox="0 0 16 16" fill="none" xmlns="http://www.w3.org/2000/svg">
<g clip-path="url(#clip0_913_1125)">
<g clip-path="url(#clip1_913_1125)">
<path d="M9.89323 7.70313L8.32812 7.13281L6.44792 12.2917H1.70833C1.2474 12.2917 0.875 12.6641 0.875 13.125C0.875 13.5859 1.2474 13.9583 1.70833 13.9583H15.0417C15.5026 13.9583 15.875 13.5859 15.875 13.125C15.875 12.6641 15.5026 12.2917 15.0417 12.2917H8.22135L9.89062 7.70313H9.89323ZM13.0469 7.69792L12.9609 7.9349L14.724 8.57552C15.1953 8.7474 15.7135 8.46615 15.7552 7.96615C15.9245 5.92188 15.1328 3.91667 13.651 2.53646C13.7031 2.74479 13.7344 2.96094 13.7396 3.18229L13.7448 3.33854C13.7917 4.82292 13.5547 6.30208 13.0469 7.69792ZM12.9062 3.20573C12.8776 2.3099 12.3203 1.51823 11.4896 1.1901C11.4661 1.17969 11.4401 1.17188 11.4167 1.16146C10.5573 0.856771 9.59896 1.09896 8.99219 1.78125L8.88802 1.89844C7.96875 2.92448 7.25521 4.11979 6.78125 5.41667L6.69531 5.65365L12.1771 7.64844L12.263 7.41146C12.7344 6.11458 12.9557 4.74219 12.9115 3.36198L12.9062 3.20573ZM3.66667 3.5651C3.3776 3.97396 3.59375 4.52344 4.0651 4.69531L5.91406 5.36719L6 5.13021C6.50781 3.73438 7.27865 2.44792 8.26823 1.34115L8.3724 1.22396C8.53385 1.04427 8.71354 0.885417 8.90625 0.75C6.83333 0.815104 4.8776 1.84896 3.66667 3.5625V3.5651Z" fill="#4C71F1"/>
</g>
</g>
<defs>
<clipPath id="clip0_913_1125">
<rect width="15" height="15" fill="white" transform="translate(0.875 0.625)"/>
</clipPath>
<clipPath id="clip1_913_1125">
<rect width="15" height="13.3333" fill="white" transform="translate(0.875 0.625)"/>
</clipPath>
</defs>
</svg>
