<svg width="20" height="20" viewBox="0 0 20 20" fill="none" xmlns="http://www.w3.org/2000/svg">
<path d="M2.25 5.15002C2.25 4.6859 2.43437 4.24078 2.76256 3.91259C3.09075 3.5844 3.53587 3.40002 4 3.40002C4.46413 3.40002 4.90925 3.5844 5.23744 3.91259C5.56563 4.24078 5.75 4.6859 5.75 5.15002C5.75 5.61415 5.56563 6.05927 5.23744 6.38746C4.90925 6.71565 4.46413 6.90002 4 6.90002C3.53587 6.90002 3.09075 6.71565 2.76256 6.38746C2.43437 6.05927 2.25 5.61415 2.25 5.15002ZM2 10.0781C1.6875 10.4281 1.5 10.8938 1.5 11.4C1.5 11.9063 1.6875 12.3719 2 12.7219V10.0781ZM6.5125 8.53752C5.58437 9.3594 5 10.5625 5 11.9C5 12.9719 5.375 13.9563 6 14.7281V15.4C6 15.9531 5.55312 16.4 5 16.4H3C2.44688 16.4 2 15.9531 2 15.4V14.5625C0.81875 14 0 12.7969 0 11.4C0 9.46565 1.56562 7.90002 3.5 7.90002H4.5C5.25 7.90002 5.94375 8.1344 6.5125 8.5344V8.53752ZM14 15.4V14.7281C14.625 13.9563 15 12.9719 15 11.9C15 10.5625 14.4156 9.3594 13.4875 8.5344C14.0563 8.1344 14.75 7.90002 15.5 7.90002H16.5C18.4344 7.90002 20 9.46565 20 11.4C20 12.7969 19.1812 14 18 14.5625V15.4C18 15.9531 17.5531 16.4 17 16.4H15C14.4469 16.4 14 15.9531 14 15.4ZM14.25 5.15002C14.25 4.6859 14.4344 4.24078 14.7626 3.91259C15.0908 3.5844 15.5359 3.40002 16 3.40002C16.4641 3.40002 16.9092 3.5844 17.2374 3.91259C17.5656 4.24078 17.75 4.6859 17.75 5.15002C17.75 5.61415 17.5656 6.05927 17.2374 6.38746C16.9092 6.71565 16.4641 6.90002 16 6.90002C15.5359 6.90002 15.0908 6.71565 14.7626 6.38746C14.4344 6.05927 14.25 5.61415 14.25 5.15002ZM18 10.0781V12.725C18.3125 12.3719 18.5 11.9094 18.5 11.4031C18.5 10.8969 18.3125 10.4313 18 10.0813V10.0781ZM10 3.40002C10.5304 3.40002 11.0391 3.61074 11.4142 3.98581C11.7893 4.36088 12 4.86959 12 5.40002C12 5.93046 11.7893 6.43917 11.4142 6.81424C11.0391 7.18931 10.5304 7.40002 10 7.40002C9.46957 7.40002 8.96086 7.18931 8.58579 6.81424C8.21071 6.43917 8 5.93046 8 5.40002C8 4.86959 8.21071 4.36088 8.58579 3.98581C8.96086 3.61074 9.46957 3.40002 10 3.40002ZM7.5 11.9C7.5 12.4063 7.6875 12.8688 8 13.2219V10.5781C7.6875 10.9313 7.5 11.3938 7.5 11.9ZM12 10.5781V13.225C12.3125 12.8719 12.5 12.4094 12.5 11.9031C12.5 11.3969 12.3125 10.9313 12 10.5813V10.5781ZM14 11.9C14 13.2969 13.1812 14.5 12 15.0625V16.4C12 16.9531 11.5531 17.4 11 17.4H9C8.44687 17.4 8 16.9531 8 16.4V15.0625C6.81875 14.5 6 13.2969 6 11.9C6 9.96565 7.56563 8.40002 9.5 8.40002H10.5C12.4344 8.40002 14 9.96565 14 11.9Z" fill="#C7C7C7"/>
</svg>
