<svg width="20" height="20" viewBox="0 0 20 20" fill="none" xmlns="http://www.w3.org/2000/svg">
<g clip-path="url(#clip0_913_1352)">
<path d="M0 2.22222C0 0.996528 0.996528 0 2.22222 0H7.77778V4.44444C7.77778 5.05903 8.27431 5.55556 8.88889 5.55556H13.3333V9.92014L10.3194 12.934C9.96181 13.2917 9.71181 13.7361 9.59028 14.2257L8.94097 16.8264C8.86111 17.1458 8.87847 17.4792 8.98611 17.7812H2.22222C0.996528 17.7812 0 16.7847 0 15.559V2.22222ZM13.3333 4.44444H8.88889V0L13.3333 4.44444ZM19.0903 8.18403L19.5903 8.68403C20.1319 9.22569 20.1319 10.1042 19.5903 10.6493L18.5694 11.6701L16.1042 9.20486L17.125 8.18403C17.6667 7.64236 18.5451 7.64236 19.0903 8.18403ZM10.8299 14.4792L15.316 9.99305L17.7812 12.4583L13.2951 16.941C13.1528 17.0833 12.9757 17.184 12.7778 17.2326L10.691 17.7535C10.5 17.8021 10.3021 17.7465 10.1632 17.6076C10.0243 17.4688 9.96875 17.2708 10.0174 17.0799L10.5382 14.9931C10.5868 14.7986 10.6875 14.6181 10.8299 14.4757V14.4792Z" fill="#4C71F1"/>
</g>
<defs>
<clipPath id="clip0_913_1352">
<rect width="20" height="17.7778" fill="white"/>
</clipPath>
</defs>
</svg>
