<svg width="20" height="20" viewBox="0 0 20 20" fill="none" xmlns="http://www.w3.org/2000/svg">
<g clip-path="url(#clip0_913_1302)">
<path d="M2.22222 2.71109C2.22222 2.0965 1.72569 1.59998 1.11111 1.59998C0.496528 1.59998 0 2.0965 0 2.71109V6.04442V14.9333C0 16.159 0.996528 17.1555 2.22222 17.1555H8.88889V14.9333H2.22222V7.15553H8.88889V4.93331H2.22222V2.71109ZM10 8.26664C10 8.88123 10.4965 9.37775 11.1111 9.37775H18.8889C19.5035 9.37775 20 8.88123 20 8.26664V3.8222C20 3.20761 19.5035 2.71109 18.8889 2.71109H15.4618C15.1667 2.71109 14.8854 2.59303 14.6771 2.3847L14.2153 1.92636C14.0069 1.71803 13.7257 1.59998 13.4306 1.59998H11.1111C10.4965 1.59998 10 2.0965 10 2.71109V8.26664ZM10 18.2666C10 18.8812 10.4965 19.3778 11.1111 19.3778H18.8889C19.5035 19.3778 20 18.8812 20 18.2666V13.8222C20 13.2076 19.5035 12.7111 18.8889 12.7111H15.4618C15.1667 12.7111 14.8854 12.593 14.6771 12.3847L14.2153 11.9229C14.0069 11.7146 13.7257 11.5965 13.4306 11.5965H11.1111C10.4965 11.5965 10 12.093 10 12.7076V18.2666Z" fill="#C7C7C7"/>
</g>
<defs>
<clipPath id="clip0_913_1302">
<rect width="20" height="17.7778" fill="white" transform="translate(0 1.59998)"/>
</clipPath>
</defs>
</svg>
