<svg width="25" height="25" viewBox="0 0 25 25" fill="none" xmlns="http://www.w3.org/2000/svg">
<path d="M24 10.2521C21.8374 10.2573 19.7279 9.58668 17.9694 8.33512V17.0639C17.9688 18.6806 17.4718 20.2585 16.5449 21.5868C15.618 22.915 14.3053 23.9302 12.7824 24.4967C11.2596 25.0632 9.59903 25.1539 8.02291 24.7566C6.44679 24.3594 5.03019 23.4933 3.96254 22.274C2.89488 21.0547 2.22706 19.5403 2.04837 17.9335C1.86968 16.3266 2.18864 14.7038 2.9626 13.282C3.73656 11.8602 4.92862 10.7073 6.3794 9.97732C7.83018 9.24735 9.47052 8.97517 11.0811 9.19715V13.5874C10.3441 13.3569 9.55268 13.3639 8.81989 13.6073C8.0871 13.8507 7.4504 14.318 7.0007 14.9427C6.55101 15.5673 6.31132 16.3173 6.31588 17.0854C6.32043 17.8536 6.56898 18.6007 7.02604 19.22C7.48311 19.8394 8.1253 20.2993 8.86092 20.534C9.59655 20.7688 10.388 20.7665 11.1222 20.5274C11.8564 20.2883 12.4959 19.8246 12.9492 19.2026C13.4026 18.5806 13.6467 17.8321 13.6467 17.0639V0H17.9694C17.9664 0.362953 17.9969 0.725412 18.0607 1.08279C18.2109 1.88059 18.5233 2.63954 18.9786 3.31321C19.4339 3.98688 20.0227 4.56111 20.7089 5.00078C21.6851 5.64259 22.8297 5.98467 24 5.98443V10.2521Z" fill="black"/>
</svg>
