<svg width="30" height="30" viewBox="0 0 30 30" fill="none" xmlns="http://www.w3.org/2000/svg">
<g clip-path="url(#clip0_901_732)">
<g clip-path="url(#clip1_901_732)">
<path d="M23.3789 22.5117C22.084 20.2617 19.6523 18.75 16.875 18.75H13.125C10.3477 18.75 7.91602 20.2617 6.62109 22.5117C8.68359 24.8086 11.6719 26.25 15 26.25C18.3281 26.25 21.3164 24.8027 23.3789 22.5117ZM0 15C0 11.0218 1.58035 7.20644 4.3934 4.3934C7.20644 1.58035 11.0218 0 15 0C18.9782 0 22.7936 1.58035 25.6066 4.3934C28.4196 7.20644 30 11.0218 30 15C30 18.9782 28.4196 22.7936 25.6066 25.6066C22.7936 28.4196 18.9782 30 15 30C11.0218 30 7.20644 28.4196 4.3934 25.6066C1.58035 22.7936 0 18.9782 0 15ZM15 15.9375C16.1189 15.9375 17.1919 15.493 17.9831 14.7019C18.7743 13.9107 19.2188 12.8376 19.2188 11.7188C19.2188 10.5999 18.7743 9.52681 17.9831 8.73564C17.1919 7.94447 16.1189 7.5 15 7.5C13.8811 7.5 12.8081 7.94447 12.0169 8.73564C11.2257 9.52681 10.7812 10.5999 10.7812 11.7188C10.7812 12.8376 11.2257 13.9107 12.0169 14.7019C12.8081 15.493 13.8811 15.9375 15 15.9375Z" fill="white"/>
</g>
</g>
<defs>
<clipPath id="clip0_901_732">
<rect width="30" height="30" fill="white"/>
</clipPath>
<clipPath id="clip1_901_732">
<rect width="30" height="30" fill="white"/>
</clipPath>
</defs>
</svg>
