<svg width="25" height="25" viewBox="0 0 25 25" fill="none" xmlns="http://www.w3.org/2000/svg">
<path d="M22.2262 5.55957C23.04 4.74577 23.04 3.42415 22.2262 2.61035C21.4124 1.79655 20.0908 1.79655 19.277 2.61035L12.4215 9.47233L5.55957 2.61686C4.74577 1.80306 3.42415 1.80306 2.61035 2.61686C1.79655 3.43066 1.79655 4.75228 2.61035 5.56608L9.47233 12.4215L2.61686 19.2835C1.80306 20.0973 1.80306 21.4189 2.61686 22.2327C3.43066 23.0466 4.75228 23.0466 5.56608 22.2327L12.4215 15.3708L19.2835 22.2262C20.0973 23.04 21.4189 23.04 22.2327 22.2262C23.0466 21.4124 23.0466 20.0908 22.2327 19.277L15.3708 12.4215L22.2262 5.55957Z" fill="#4C71F1"/>
</svg>
